# xmcd CD database file
#
# Track frame offsets:
#	182
#	15237
#	29427
#	40090
#	60070
#	75152
#	92985
#	106050
#	120057
#	134325
#	151110
#	168930
#
# Disc length: 2423 seconds
#
# Revision: 2
# Processed by: cddbd v1.5.2PL0 Copyright (c) Steve Scherf et al.
# Submitted via: CDex 2.03
#
DISCID=7009750c
DTITLE=Glenn Miller Orchestra, The - The Miller Sound Lives Forever
DYEAR=1997
DGENRE=Jazz
TTITLE0=In The Mood
TTITLE1=I Love My Wife
TTITLE2=Kansas City
TTITLE3=Feelings
TTITLE4=Front Page Rag
TTITLE5=Evergreen
TTITLE6=Wonderful Jeannie
TTITLE7=Star Wars--War Of The Stars
TTITLE8=After The Lovin'
TTITLE9=What I Did For Love
TTITLE10=I Have Dreamed
TTITLE11=Tomorrow
EXTD=YEAR: 1997
EXTT0=
EXTT1=
EXTT2=
EXTT3=
EXTT4=
EXTT5=
EXTT6=
EXTT7=
EXTT8=
EXTT9=
EXTT10=
EXTT11=
PLAYORDER=
